<?xml version="1.0" standalone="no"?>
<!DOCTYPE svg PUBLIC "-//W3C//DTD SVG 20010904//EN"
 "http://www.w3.org/TR/2001/REC-SVG-20010904/DTD/svg10.dtd">
<svg version="1.0" xmlns="http://www.w3.org/2000/svg"
 width="700.000000pt" height="700.000000pt" viewBox="0 0 700.000000 700.000000"
 preserveAspectRatio="xMidYMid meet">
<metadata>
Created by potrace 1.14, written by Peter Selinger 2001-2017
</metadata>
<g transform="translate(0.000000,700.000000) scale(0.100000,-0.100000)"
fill="#000000" stroke="none">
<path d="M3278 6995 c-1 -1 -42 -5 -89 -9 -47 -4 -96 -9 -109 -11 -12 -2 -48
-7 -79 -11 -31 -3 -65 -8 -76 -10 -11 -2 -45 -8 -75 -14 -81 -15 -84 -16 -215
-48 -163 -41 -358 -106 -462 -153 -24 -10 -46 -19 -49 -19 -14 0 -299 -143
-362 -181 -35 -21 -66 -39 -68 -39 -14 0 -352 -235 -374 -260 -3 -3 -30 -25
-60 -50 -103 -84 -251 -226 -355 -341 -422 -463 -717 -1051 -836 -1658 -11
-58 -22 -116 -24 -130 -2 -14 -6 -42 -10 -62 -20 -123 -30 -281 -30 -504 1
-196 7 -334 20 -406 2 -13 7 -44 9 -69 28 -250 120 -592 234 -865 85 -205 218
-451 330 -615 51 -74 153 -212 162 -220 3 -3 24 -27 45 -55 153 -191 446 -465
635 -595 19 -13 37 -27 40 -30 13 -14 99 -70 108 -70 6 0 12 -4 14 -8 6 -16
230 -143 363 -207 264 -127 524 -219 770 -271 80 -17 211 -41 274 -50 25 -3
57 -8 71 -10 163 -25 682 -25 842 1 13 2 46 6 73 10 28 3 57 8 65 10 8 2 32 6
53 9 130 20 330 70 500 127 811 270 1517 852 1934 1594 45 79 169 333 178 365
4 14 11 30 15 35 9 11 21 44 79 215 40 115 90 302 107 390 2 14 7 36 10 50 3
14 7 36 9 50 3 24 10 63 20 120 2 14 7 52 10 85 4 33 9 71 11 85 9 48 11 526
3 612 -13 139 -21 208 -39 308 -6 36 -13 79 -16 95 -23 129 -109 427 -171 585
-62 160 -165 372 -242 499 -28 46 -51 85 -51 87 0 6 -136 203 -179 259 -194
253 -439 497 -676 675 -97 72 -251 180 -258 180 -2 0 -46 26 -98 57 -101 61
-389 203 -411 203 -8 0 -18 4 -23 9 -17 16 -254 97 -390 134 -124 34 -278 68
-375 83 -25 3 -54 8 -65 10 -10 2 -47 6 -81 10 -33 3 -74 8 -90 10 -32 5 -540
14 -546 9z m349 -1245 c21 -5 49 -11 63 -14 38 -7 100 -31 161 -61 257 -130
447 -415 485 -730 9 -75 9 -1320 0 -1395 -20 -165 -68 -303 -151 -432 -212
-327 -590 -469 -934 -351 -256 88 -461 301 -549 573 -51 154 -51 165 -49 935
3 698 4 722 24 795 51 182 129 321 244 440 47 48 120 108 154 126 11 6 38 21
60 34 97 55 229 88 357 88 53 0 114 -4 135 -8z m-1237 -1952 c51 -35 67 -78
74 -198 3 -58 8 -116 11 -130 3 -14 10 -48 16 -77 5 -28 20 -82 33 -120 195
-568 741 -871 1267 -703 416 133 726 572 738 1047 3 106 27 159 88 192 57 30
142 -3 176 -69 15 -30 17 -54 13 -155 -3 -66 -7 -131 -10 -145 -3 -14 -7 -38
-9 -55 -18 -113 -64 -256 -124 -385 -194 -418 -577 -717 -990 -773 -12 -2 -26
-6 -29 -10 -6 -5 -9 -468 -5 -614 l1 -31 180 -1 c198 -1 221 -6 259 -59 11
-16 23 -50 26 -75 9 -62 -21 -127 -71 -156 -34 -20 -48 -21 -536 -21 -555 0
-542 -1 -587 66 -19 27 -25 48 -24 88 0 57 13 89 50 123 33 31 45 33 243 36
l174 2 1 323 0 322 -35 6 c-325 54 -624 234 -824 499 -25 33 -50 65 -54 70
-18 22 -91 153 -115 205 -56 123 -108 286 -122 385 -3 23 -8 52 -10 65 -13 66
-16 231 -5 265 31 94 126 133 200 83z"/>
</g>
</svg>
